<svg viewBox="0 0 80 28" xmlns="http://www.w3.org/2000/svg" xmlns:xlink="http://www.w3.org/1999/xlink" width="80.000000" height="28.000000" fill="none" customFrame="#000000">
	<defs>
		<linearGradient id="paint_linear_0" x1="70.9999695" x2="30.8928719" y1="26.5000076" y2="13.3859243" gradientUnits="userSpaceOnUse">
			<stop stop-color="rgb(255,254.745,254.745)" offset="0" stop-opacity="1" />
			<stop stop-color="rgb(255,254.745,254.745)" offset="1" stop-opacity="0" />
		</linearGradient>
		<clipPath id="clipPath_0">
			<rect width="80.000000" height="28.000000" x="0.000000" y="0.000000" fill="rgb(255,255,255)" />
		</clipPath>
		<linearGradient id="paint_linear_1" x1="0" x2="39.517128" y1="5.13331604" y2="7.59474182" gradientUnits="userSpaceOnUse">
			<stop stop-color="rgb(144,148,255)" offset="0" stop-opacity="1" />
			<stop stop-color="rgb(82,245,255)" offset="1" stop-opacity="0.899999976" />
		</linearGradient>
		<linearGradient id="paint_linear_2" x1="35.4999847" x2="13.8802967" y1="26.5000076" y2="22.9654427" gradientUnits="userSpaceOnUse">
			<stop stop-color="rgb(255,254.745,254.745)" offset="0" stop-opacity="1" />
			<stop stop-color="rgb(255,254.745,254.745)" offset="1" stop-opacity="0" />
		</linearGradient>
		<clipPath id="clipPath_1">
			<rect width="40.000000" height="28.000000" x="0.000000" y="0.000000" rx="14.000000" fill="rgb(255,255,255)" />
		</clipPath>
		<clipPath id="clipPath_2">
			<rect width="16.000000" height="16.000000" x="12.000000" y="6.000000" rx="8.000000" fill="rgb(255,255,255)" />
		</clipPath>
		<clipPath id="clipPath_3">
			<rect width="40.000000" height="28.000000" x="40.000000" y="0.000000" rx="6.000000" fill="rgb(255,255,255)" />
		</clipPath>
		<linearGradient id="paint_linear_3" x1="68.9850769" x2="111.97773" y1="8.99999237" y2="12.2908077" gradientUnits="userSpaceOnUse">
			<stop stop-color="rgb(139.091,143.02,255)" offset="0" stop-opacity="1" />
			<stop stop-color="rgb(204,108,217)" offset="1" stop-opacity="1" />
		</linearGradient>
		<clipPath id="clipPath_4">
			<rect width="16.000000" height="16.000000" x="52.000000" y="6.000000" fill="rgb(255,255,255)" />
		</clipPath>
	</defs>
	<g id="组合 4774">
		<rect id="矩形 3503" width="80.000000" height="28.000000" x="0.000000" y="0.000000" rx="14.000000" opacity="0.479999989" fill="rgb(255,255,255)" fill-opacity="0.100000001" transform="matrix(-1,0,0,1,80,0)" />
		<rect id="矩形 3503" width="79.500000" height="27.500000" x="0.250000" y="0.250000" rx="13.750000" opacity="0.479999989" stroke="url(#paint_linear_0)" stroke-opacity="0.200000003" stroke-width="0.5" transform="matrix(-1,0,0,1,80,0)" />
		<g id="容器 10" customFrame="url(#clipPath_0)">
			<rect id="容器 10" width="80.000000" height="28.000000" x="0.000000" y="0.000000" />
			<g id="页签" customFrame="url(#clipPath_1)">
				<rect id="页签" width="40.000000" height="28.000000" x="0.000000" y="0.000000" rx="14.000000" fill="url(#paint_linear_1)" fill-opacity="0.100000001" />
				<rect id="页签" width="39.500000" height="27.500000" x="0.250000" y="0.250000" rx="13.750000" stroke="url(#paint_linear_2)" stroke-opacity="0.100000001" stroke-width="0.5" />
				<path id="" d="M31.8525 18L28.9229 18L28.9229 9.2168L31.8525 9.2168C32.708 9.2168 33.4814 9.38867 34.1729 9.73242C34.8662 10.0762 35.4121 10.5781 35.8105 11.2383C36.2109 11.8984 36.4111 12.6846 36.4111 13.5967C36.4111 14.5088 36.2109 15.2969 35.8105 15.9609C35.4121 16.625 34.8682 17.1309 34.1787 17.4785C33.4912 17.8262 32.7158 18 31.8525 18ZM31.6475 10.6934L30.6631 10.6934L30.6631 16.5117L31.6475 16.5117C32.2725 16.5117 32.8027 16.4004 33.2383 16.1777C33.6738 15.9531 34.0059 15.623 34.2344 15.1875C34.4629 14.75 34.5771 14.2197 34.5771 13.5967C34.5771 12.9795 34.4629 12.4551 34.2344 12.0234C34.0059 11.5918 33.6738 11.2627 33.2383 11.0361C32.8027 10.8076 32.2725 10.6934 31.6475 10.6934ZM40.7551 11.6279C41.3957 11.6279 41.9455 11.7881 42.4045 12.1084C42.8654 12.4287 43.1955 12.8711 43.3947 13.4355C43.5959 13.998 43.632 14.6318 43.5031 15.3369L39.3752 15.3369C39.4318 15.6475 39.5275 15.9072 39.6623 16.1162C39.799 16.3232 39.9689 16.4795 40.1721 16.585C40.3771 16.6885 40.6076 16.7402 40.8635 16.7402C41.1447 16.7402 41.3928 16.6787 41.6076 16.5557C41.8244 16.4307 41.9963 16.2441 42.1232 15.9961L43.3478 16.7168C43.1799 17.1719 42.8596 17.5234 42.3869 17.7715C41.9162 18.0195 41.3849 18.1436 40.7931 18.1436C40.2326 18.1436 39.7121 18.0195 39.2316 17.7715C38.7512 17.5234 38.3644 17.1514 38.0715 16.6553C37.7805 16.1592 37.6349 15.5635 37.6349 14.8682C37.6349 14.1807 37.7805 13.5928 38.0715 13.1045C38.3644 12.6162 38.7492 12.248 39.2258 12C39.7023 11.752 40.2121 11.6279 40.7551 11.6279ZM40.7082 12.9844C40.4914 12.9844 40.2951 13.0322 40.1193 13.1279C39.9435 13.2236 39.7931 13.3574 39.6681 13.5293C39.5451 13.7012 39.4553 13.915 39.3986 14.1709L41.8713 14.1709C41.8556 13.915 41.7931 13.6973 41.6838 13.5176C41.5764 13.3379 41.4406 13.2041 41.2765 13.1162C41.1144 13.0283 40.925 12.9844 40.7082 12.9844ZM48.1482 17.9883L46.7918 17.9883L44.0789 11.7832L45.9275 11.7832L47.5359 15.8877L49.0359 11.7832L50.7761 11.7832L48.1482 17.9883Z" opacity="0" fill="rgb(255,255,255)" fill-opacity="0.400000006" fill-rule="nonzero" />
				<g id="24px/ic_ide_codebase" clip-path="url(#clipPath_2)" customFrame="url(#clipPath_2)">
					<rect id="24px/ic_ide_codebase" width="16.000000" height="16.000000" x="12.000000" y="6.000000" rx="8.000000" />
					<path id="合并" d="M24.5001 11.8656L19.9997 8.46004L15.5001 11.8652L15.5001 18.833C15.5001 18.8993 15.5075 18.9639 15.5225 19.0267C15.533 19.0711 15.5473 19.1146 15.5654 19.1572C15.5843 19.2021 15.6069 19.2447 15.633 19.2851C15.6648 19.3342 15.7018 19.3799 15.7441 19.4223C15.7865 19.4646 15.8322 19.5017 15.8814 19.5335C15.9217 19.5595 15.9643 19.5821 16.0092 19.6011C16.0518 19.6191 16.0953 19.6334 16.1397 19.6439C16.2025 19.6589 16.267 19.6663 16.3334 19.6663L23.6667 19.6663C23.7331 19.6663 23.7976 19.6589 23.8604 19.6439C23.9048 19.6334 23.9483 19.6191 23.991 19.6011C24.0359 19.5821 24.0785 19.5595 24.1188 19.5334C24.1679 19.5016 24.2137 19.4646 24.256 19.4223C24.2983 19.3799 24.3354 19.3342 24.3672 19.285C24.3933 19.2447 24.4158 19.2021 24.4348 19.1572C24.4528 19.1146 24.4671 19.0711 24.4777 19.0267C24.4926 18.9639 24.5001 18.8994 24.5001 18.833L24.5001 11.8656ZM25.5001 12.6224L25.8648 12.8984C26.0881 13.0673 26.3962 13.0247 26.5652 12.8014C26.7342 12.5781 26.6915 12.2699 26.4682 12.101L20.3015 7.4343C20.2122 7.36677 20.1117 7.33301 19.9997 7.33301C19.8878 7.33301 19.7873 7.36677 19.698 7.4343L13.5313 12.101C13.308 12.2699 13.2653 12.5781 13.4343 12.8014C13.6033 13.0247 13.9114 13.0673 14.1347 12.8984L14.5001 12.6219L14.5001 18.833C14.5001 18.9669 14.514 19.0978 14.542 19.2256L14.542 19.2256C14.5659 19.3349 14.6 19.4419 14.6443 19.5468C14.6887 19.6515 14.7417 19.7506 14.8034 19.8439C14.8709 19.9459 14.9487 20.0411 15.037 20.1294C15.1253 20.2177 15.2205 20.2956 15.3226 20.3631C15.4159 20.4248 15.5149 20.4777 15.6196 20.5221C15.7245 20.5664 15.8315 20.6005 15.9408 20.6244C16.0686 20.6524 16.1995 20.6663 16.3334 20.6663L23.6667 20.6663C23.8006 20.6663 23.9315 20.6524 24.0593 20.6244L24.0593 20.6244C24.1686 20.6005 24.2757 20.5664 24.3805 20.5221C24.4853 20.4777 24.5843 20.4247 24.6776 20.363C24.7796 20.2956 24.8748 20.2177 24.9631 20.1294C25.0514 20.0411 25.1293 19.9459 25.1968 19.8438C25.2585 19.7505 25.3115 19.6515 25.3558 19.5468C25.4001 19.4419 25.4342 19.3349 25.4581 19.2256C25.4861 19.0978 25.5001 18.9669 25.5001 18.833L25.5001 12.6224Z" fill="rgb(255,255,255)" fill-opacity="0.899999976" fill-rule="evenodd" />
					<path id="合并" d="M21.5591 13.0515L19.2473 18.0091C19.1421 18.2347 18.8823 18.3293 18.6567 18.2241C18.4311 18.1189 18.3365 17.8591 18.4417 17.6335L20.7535 12.6758C20.8587 12.4503 21.1186 12.3557 21.3442 12.4609C21.5697 12.566 21.6643 12.8259 21.5591 13.0515ZM18.1261 14.2892L17.0729 15.3425L18.1261 16.3958C18.3021 16.5717 18.3021 16.8483 18.1261 17.0243C17.9501 17.2003 17.6736 17.2003 17.4976 17.0243L16.1301 15.6568C16.0867 15.6134 16.0541 15.5655 16.0324 15.5131C16.0107 15.4607 15.9999 15.4039 15.9999 15.3425C15.9999 15.2198 16.0433 15.115 16.1301 15.0282L17.4976 13.6607C17.6736 13.4847 17.9501 13.4847 18.1261 13.6607C18.3021 13.8367 18.3021 14.1132 18.1261 14.2892ZM22.9273 15.3425L21.8741 14.2892C21.6981 14.1132 21.6981 13.8367 21.8741 13.6607C22.0501 13.4847 22.3266 13.4847 22.5026 13.6607L23.8701 15.0282C23.9569 15.115 24.0003 15.2198 24.0003 15.3425C24.0003 15.4039 23.9895 15.4607 23.9678 15.5131C23.9461 15.5655 23.9135 15.6134 23.8701 15.6568L22.5026 17.0243C22.3266 17.2003 22.0501 17.2003 21.8741 17.0243C21.6981 16.8483 21.6981 16.5717 21.8741 16.3958L22.9273 15.3425Z" fill="rgb(255,255,255)" fill-opacity="0.899999976" fill-rule="evenodd" />
				</g>
			</g>
			<g id="页签" customFrame="url(#clipPath_3)">
				<rect id="页签" width="40.000000" height="28.000000" x="40.000000" y="0.000000" rx="6.000000" />
				<path id="" d="M69.8105 16L68.0732 16L71.5156 7.2168L73.0391 7.2168L76.5928 16L74.7441 16L73.9766 13.9961L70.5547 13.9961L69.8105 16ZM73.4111 12.5078L72.2363 9.42285L71.0967 12.5078L73.4111 12.5078ZM77.5989 16L77.5989 7.2168L79.3391 7.2168L79.3391 16L77.5989 16ZM88.1126 16L86.636 16L83.0852 7.2168L85.0628 7.2168L87.4153 13.5654L89.6712 7.2168L91.5315 7.2168L88.1126 16ZM93.2127 8.99219C92.9412 8.99219 92.7088 8.89062 92.5154 8.6875C92.324 8.48242 92.2283 8.24414 92.2283 7.97266C92.2283 7.70117 92.324 7.46387 92.5154 7.26074C92.7088 7.05566 92.9412 6.95312 93.2127 6.95312C93.4842 6.95312 93.7195 7.05273 93.9187 7.25195C94.1199 7.45117 94.2205 7.69141 94.2205 7.97266C94.2205 8.24414 94.1199 8.48242 93.9187 8.6875C93.7195 8.89062 93.4842 8.99219 93.2127 8.99219ZM92.3953 16L92.3953 9.7832L94.0652 9.7832L94.0652 16L92.3953 16ZM98.3711 9.62793C99.0117 9.62793 99.5615 9.78809 100.02 10.1084C100.481 10.4287 100.811 10.8711 101.011 11.4355C101.212 11.998 101.248 12.6318 101.119 13.3369L96.9912 13.3369C97.0478 13.6475 97.1435 13.9072 97.2783 14.1162C97.415 14.3232 97.5849 14.4795 97.7881 14.585C97.9931 14.6885 98.2236 14.7402 98.4795 14.7402C98.7607 14.7402 99.0088 14.6787 99.2236 14.5557C99.4404 14.4307 99.6123 14.2441 99.7392 13.9961L100.964 14.7168C100.796 15.1719 100.476 15.5234 100.003 15.7715C99.5322 16.0195 99.0009 16.1436 98.4091 16.1436C97.8486 16.1436 97.3281 16.0195 96.8476 15.7715C96.3672 15.5234 95.9804 15.1514 95.6875 14.6553C95.3965 14.1592 95.2509 13.5635 95.2509 12.8682C95.2509 12.1807 95.3965 11.5928 95.6875 11.1045C95.9804 10.6162 96.3652 10.248 96.8418 10C97.3183 9.75195 97.8281 9.62793 98.3711 9.62793ZM98.3242 10.9844C98.1074 10.9844 97.9111 11.0322 97.7353 11.1279C97.5595 11.2236 97.4091 11.3574 97.2841 11.5293C97.1611 11.7012 97.0713 11.915 97.0146 12.1709L99.4873 12.1709C99.4716 11.915 99.4091 11.6973 99.2998 11.5176C99.1924 11.3379 99.0566 11.2041 98.8925 11.1162C98.7304 11.0283 98.541 10.9844 98.3242 10.9844ZM103.112 9.7832L104.421 13.709L105.643 9.7832L107.037 9.7832L108.332 13.6592L109.557 9.7832L111.177 9.7832L108.907 15.9883L107.72 15.9883L106.305 12.209L104.949 15.9883L103.747 15.9883L101.395 9.7832L103.112 9.7832Z" opacity="0" fill="url(#paint_linear_3)" fill-rule="nonzero" />
				<g id="24px/ic_ide_ai填充" clip-path="url(#clipPath_4)" customFrame="url(#clipPath_4)">
					<rect id="24px/ic_ide_ai填充" width="16.000000" height="16.000000" x="52.000000" y="6.000000" />
					<path id="path" d="M59.9934 21.3203C61.3179 21.3203 62.5423 20.9937 63.6667 20.3403C64.7912 19.6825 65.6845 18.7914 66.3467 17.667C67.009 16.5425 67.3401 15.3181 67.3401 13.9937L67.3401 13.7403C67.3267 13.3137 67.2734 12.8892 67.1801 12.467C67.0823 12.0448 66.949 11.6248 66.7801 11.207C66.7356 11.0825 66.6467 10.9892 66.5134 10.927C66.3801 10.8692 66.249 10.867 66.1201 10.9203C65.9823 10.987 65.8867 11.0825 65.8334 11.207C65.7801 11.3359 65.7801 11.4648 65.8334 11.5937C65.9934 11.9759 66.1134 12.367 66.1934 12.767C66.2734 13.167 66.3134 13.5759 66.3134 13.9937C66.3134 15.1359 66.0312 16.1914 65.4667 17.1603C64.9023 18.1337 64.1334 18.9025 63.1601 19.467C62.1912 20.0314 61.1356 20.3137 59.9934 20.3137C58.9801 20.3137 58.0156 20.0737 57.1001 19.5937C56.9712 19.5314 56.8401 19.5203 56.7067 19.5603C56.5734 19.6048 56.469 19.6914 56.3934 19.8203C56.3401 19.9448 56.3356 20.0737 56.3801 20.207C56.4201 20.3403 56.5045 20.4403 56.6334 20.507C57.1579 20.7737 57.7001 20.9759 58.2601 21.1137C58.8201 21.2514 59.3979 21.3203 59.9934 21.3203ZM53.8801 17.527C53.9556 17.527 54.0245 17.5114 54.0867 17.4803C54.229 17.4181 54.3201 17.3181 54.3601 17.1803C54.4045 17.0381 54.3934 16.9092 54.3267 16.7937L54.2801 16.667C54.0801 16.2492 53.9312 15.8203 53.8334 15.3803C53.7356 14.9359 53.6867 14.4737 53.6867 13.9937C53.6867 12.8514 53.9712 11.7981 54.5401 10.8337C55.1045 9.86921 55.869 9.10477 56.8334 8.54033C57.7979 7.97144 58.8512 7.68699 59.9934 7.68699C60.7312 7.68699 61.3979 7.79366 61.9934 8.00699C62.1223 8.05144 62.2512 8.09588 62.3801 8.14033C62.5045 8.20255 62.6334 8.20699 62.7667 8.15366C62.9001 8.10033 62.9934 8.00921 63.0467 7.88033C63.1001 7.74255 63.1001 7.60921 63.0467 7.48033C62.9934 7.35144 62.9045 7.26033 62.7801 7.20699C62.629 7.14477 62.4734 7.08699 62.3134 7.03366C61.9534 6.91366 61.5179 6.81144 61.1401 6.75366C60.7579 6.69588 60.3756 6.66699 59.9934 6.66699C58.669 6.66699 57.4445 6.99366 56.3201 7.64699C55.1956 8.30477 54.3045 9.19588 53.6467 10.3203C52.9934 11.4448 52.6667 12.6692 52.6667 13.9937C52.6667 14.5492 52.7223 15.0848 52.8334 15.6003C52.9445 16.1203 53.1179 16.6248 53.3534 17.1137L53.4201 17.2403C53.4601 17.3248 53.5223 17.3937 53.6067 17.447C53.6956 17.5003 53.7867 17.527 53.8801 17.527Z" fill="rgb(255,255,255)" fill-opacity="0.899999976" fill-rule="nonzero" />
					<path id="path" d="M54.4538 17.6406C54.4271 17.6317 54.3404 17.5849 54.3137 17.5938C54.2293 17.9804 53.9938 18.3651 53.7138 18.654C53.4382 18.9384 53.1027 19.1185 52.7071 19.194C52.7027 19.2251 52.6626 19.3183 52.6671 19.3405C53.0626 19.4116 53.4405 19.6228 53.7205 19.9072C54.0049 20.1917 54.1849 20.5295 54.2604 20.9206C54.2871 20.9295 54.3671 20.9828 54.3938 20.974C54.4783 20.5828 54.7182 20.1917 54.9938 19.9072C55.2738 19.6228 55.6093 19.4451 56.0004 19.374C56.0093 19.3429 56.0627 19.2604 56.0538 19.2337C55.6627 19.1493 55.2738 18.9295 54.9938 18.654C54.7182 18.374 54.5382 18.0362 54.4538 17.6406ZM65.0005 6.78722C64.9693 6.72055 64.9338 6.6825 64.8938 6.67361C64.8582 6.66028 64.8249 6.66713 64.7938 6.69379C64.7626 6.72046 64.7404 6.75166 64.7271 6.78722C64.6115 7.405 64.3249 7.94033 63.8672 8.39366C63.4049 8.847 62.8604 9.1426 62.2338 9.28038C62.1893 9.28927 62.1604 9.31602 62.1471 9.36046C62.1293 9.40491 62.1316 9.44502 62.1538 9.48058C62.176 9.51613 62.2027 9.53364 62.2338 9.53364C62.8604 9.66253 63.4049 9.95607 63.8672 10.4138C64.3249 10.8761 64.6115 11.4159 64.7271 12.0336C64.7493 12.087 64.7827 12.1206 64.8271 12.1339C64.8671 12.1517 64.9027 12.1493 64.9338 12.1271C64.9694 12.1048 64.9916 12.0736 65.0005 12.0336C65.1382 11.4025 65.4315 10.8603 65.8804 10.407C66.3293 9.95368 66.8671 9.66253 67.4938 9.53364C67.5382 9.52475 67.5716 9.50279 67.5938 9.46723C67.616 9.42723 67.616 9.38918 67.5938 9.35362C67.5716 9.31363 67.5382 9.28927 67.4938 9.28038C66.876 9.1426 66.3404 8.847 65.8871 8.39366C65.4338 7.94033 65.1382 7.405 65.0005 6.78722Z" fill="rgb(255,255,255)" fill-opacity="0.899999976" fill-rule="nonzero" />
					<path id="合并" d="M59.4141 10.4795C59.3697 10.3728 59.3053 10.2909 59.2208 10.2331C59.1364 10.1709 59.0363 10.1396 58.9208 10.1396C58.823 10.1396 58.7319 10.1729 58.6475 10.2396C58.5631 10.3018 58.4986 10.3817 58.4541 10.4795L55.6875 17.1663C55.6341 17.2952 55.6341 17.4242 55.6875 17.5531C55.7408 17.6775 55.8364 17.7663 55.9742 17.8197C56.0808 17.873 56.2008 17.873 56.3341 17.8197C56.4674 17.7663 56.5608 17.6775 56.6141 17.5531L57.4475 15.5798L60.4408 15.5798L61.2541 17.5531C61.3074 17.6775 61.4008 17.7663 61.5341 17.8197C61.6675 17.873 61.7919 17.873 61.9074 17.8197C62.0363 17.7663 62.1275 17.6775 62.1808 17.5531C62.2341 17.4242 62.2341 17.2952 62.1808 17.1663L59.4141 10.4795ZM63.1812 12.1061C63.3164 12.2458 63.4767 12.3157 63.662 12.3157C63.7414 12.3157 63.8163 12.3031 63.8866 12.2779C63.9818 12.2437 64.0688 12.1865 64.1474 12.1061C64.2841 11.9663 64.3525 11.803 64.3525 11.6162C64.3525 11.5242 64.3369 11.4383 64.3059 11.3584C64.2718 11.2707 64.2189 11.1903 64.1474 11.1171C64.0676 11.0348 63.9794 10.9764 63.8826 10.9421C63.8134 10.9175 63.7399 10.9052 63.662 10.9052C63.4767 10.9052 63.3164 10.9759 63.1812 11.1171C63.0476 11.2569 62.9807 11.4232 62.9807 11.6162C62.9807 11.698 62.9935 11.7753 63.0192 11.8482C63.0521 11.9416 63.1061 12.0275 63.1812 12.1061ZM57.8475 14.5729L58.9341 11.9531L60.0208 14.5729L57.8475 14.5729ZM63.1038 13.5838L63.1038 17.3003C63.1038 17.6092 63.3542 17.8597 63.6632 17.8597C63.9721 17.8597 64.2226 17.6092 64.2226 17.3003L64.2226 13.5838C64.2226 13.2748 63.9721 13.0244 63.6632 13.0244C63.3542 13.0244 63.1038 13.2748 63.1038 13.5838Z" fill="rgb(255,255,255)" fill-opacity="0.899999976" fill-rule="evenodd" />
				</g>
			</g>
		</g>
	</g>
</svg>
