<svg viewBox="0 0 20 20" xmlns="http://www.w3.org/2000/svg" xmlns:xlink="http://www.w3.org/1999/xlink" width="20.000000"
     height="20.000000" fill="none">
    <rect id="general / settings@20x20" width="20.000000" height="20.000000" x="0.000000" y="0.000000"/>
    <path id="矢量 240"
          d="M12.083 3.75L16.2497 3.75C16.94 3.75 17.4997 4.30969 17.4997 5L17.4997 15C17.4997 15.6903 16.94 16.25 16.2497 16.25L12.083 16.25L12.083 3.75Z"
          fill="rgb(255,255,255)" fill-opacity="0.200000003" fill-rule="evenodd"/>
    <path id="合并"
          d="M16.25 2.5C17.6307 2.5 18.75 3.61929 18.75 5L18.75 15C18.75 16.3807 17.6307 17.5 16.25 17.5L3.75 17.5C2.36929 17.5 1.25 16.3807 1.25 15L1.25 5C1.25 3.61929 2.36929 2.5 3.75 2.5L16.25 2.5ZM12.0833 16.25L16.25 16.25C16.9404 16.25 17.5 15.6904 17.5 15L17.5 5C17.5 4.30964 16.9404 3.75 16.25 3.75L12.0833 3.75L12.0833 16.25ZM10.8333 3.75L10.8333 16.25L3.75 16.25C3.05964 16.25 2.5 15.6904 2.5 15L2.5 5C2.5 4.30964 3.05964 3.75 3.75 3.75L10.8333 3.75Z"
          fill="rgb(255,255,255)" fill-opacity="0.899999976" fill-rule="evenodd"/>
</svg>